<svg width="491" height="362" viewBox="0 0 491 362" fill="none" xmlns="http://www.w3.org/2000/svg">
<path d="M488.274 -164.887C505.479 -41.27 437.388 89.7677 326.281 146.658C296.649 161.836 264.206 172.236 232.831 182.242C191.672 195.396 149.164 209 113.122 233.566C92.205 247.845 73.5374 265.722 55.4882 283.036C41.0377 296.921 26.0248 311.312 9.94366 323.792C-10.9731 339.982 -65.4578 375.51 -118.987 355.104L-117.975 352.462C-100.6 359.095 -53.4813 369.326 8.25689 321.543C24.2818 309.176 39.1822 294.841 53.5765 280.956C71.6818 263.529 90.462 245.54 111.547 231.149C147.927 206.358 190.66 192.698 231.987 179.487C263.25 169.481 295.581 159.137 325.044 144.072C435.082 87.6878 502.612 -42.1133 485.519 -164.606L488.33 -165L488.274 -164.887Z" fill="white"/>
<path d="M153.606 -60.8329C155.236 -2.53767 133.026 55.0829 92.6546 97.1882C52.2268 139.293 -4.39461 163.859 -62.7029 164.647L-62.7029 161.836C-5.12558 161.105 50.7649 136.82 90.6304 95.2769C130.496 53.7338 152.481 -3.0999 150.85 -60.7206L153.662 -60.7206L153.606 -60.8329Z" fill="white"/>
<path d="M364.01 -86.8045L366.709 -85.905C337.414 3.75836 307.838 81.8415 242.277 129.906C219.561 146.545 193.471 158.35 168.225 169.818C146.521 179.656 124.086 189.831 103.956 202.985C82.9833 216.702 63.5847 234.185 44.8609 251.049C11.1242 281.462 -23.7371 312.886 -68.4382 322.499L-69.0005 319.744C-25.0865 310.3 7.9754 280.506 43.0053 248.969C61.8416 231.992 81.2965 214.453 102.438 200.624C122.736 187.357 145.284 177.126 167.1 167.232C192.178 155.877 218.155 144.128 240.646 127.657C305.533 80.0988 334.94 2.40924 364.066 -86.7482L364.01 -86.8045Z" fill="white"/>
</svg>
