<svg width="558" height="540" viewBox="0 0 558 540" fill="none" xmlns="http://www.w3.org/2000/svg">
<path d="M636.235 16.3071C581.777 15.7795 539.202 63.258 517.352 108.075C507.735 127.901 500.133 149 492.777 169.445C482.539 197.913 471.934 227.332 455.755 253.298C423.579 304.932 372.415 339.922 318.337 374.049L310.594 378.924C261.077 410.173 209.82 442.538 174.051 489.427C138.947 535.427 117.788 607.386 149.629 664.293L152.208 662.827C121.072 607.12 141.919 536.469 176.42 491.239C211.827 444.764 262.844 412.576 312.18 381.445L319.923 376.57C374.242 342.206 425.706 307.04 458.245 254.872C474.606 228.61 485.212 199.072 495.511 170.425C502.808 150.039 510.408 129 519.964 109.352C541.389 65.3069 583.121 18.7149 636.147 19.2286C636.565 19.2327 636.982 19.2367 637.34 19.2402L637.369 16.2585C637.011 16.255 636.534 16.2504 636.117 16.2463L636.235 16.3071Z" fill="white"/>
<path d="M611.581 5.87184C563.478 14.3518 521.407 52.8892 486.511 120.421C480.736 131.637 475.135 143.273 469.717 154.552C450.113 195.335 429.84 237.483 396.199 267.871C360.633 299.971 313.833 315.62 268.529 330.747C247.642 337.702 226.037 344.947 205.73 353.697C160.084 373.353 117.203 403.116 81.7712 439.809C46.3396 476.502 18.0571 520.302 0.0103996 566.646L2.80345 567.747C20.7268 521.819 48.828 478.256 83.958 441.917C119.088 405.519 161.669 375.993 206.955 356.512C227.143 347.821 248.688 340.634 269.515 333.62C315.119 318.376 362.218 302.67 398.206 270.157C432.267 239.415 452.662 196.97 472.387 155.949C477.805 144.73 483.346 133.094 489.122 121.938C523.531 55.2954 564.941 17.2884 612.028 8.97752L611.52 6.05021L611.581 5.87184Z" fill="white"/>
</svg>
