<svg width="388" height="408" viewBox="0 0 388 408" fill="none" xmlns="http://www.w3.org/2000/svg">
<path d="M365.514 -52.23C369.451 -46.2909 372.914 -40.0508 375.871 -33.5677C397.142 13.3352 388.657 70.2006 362.08 114.326C335.503 158.452 292.874 191.008 246.988 214.378C226.017 225.106 203.539 234.534 187.84 252.077C167.602 274.674 162.492 305.655 151.17 332.856C109.973 431.755 -33.5919 429.962 -85.4047 341.476C-105.834 306.598 -111.334 263.922 -113.48 224.286C-116.443 169.362 -113.211 113.574 -97.3232 60.9183C-81.4358 8.26252 -52.2386 -41.2483 -9.45659 -75.824C46.5556 -121.091 121.794 -137.445 193.719 -133.631C230.12 -131.701 266.727 -124.817 299.438 -108.807C325.739 -95.8156 349.416 -76.5463 365.514 -52.23Z" fill="#15A3EA"/>
</svg>
