<svg width="100" height="100" viewBox="0 0 100 100" fill="none" xmlns="http://www.w3.org/2000/svg">
<path d="M85.5054 19.6523L79.053 91.9568L50.0492 100L21.1253 91.9682L14.6797 19.6523H85.5054Z" fill="#264DE4"/>
<path d="M73.5283 87.3529L79.0423 25.5654H50.0918V93.8523L73.5283 87.3529Z" fill="#2965F1"/>
<path d="M29.4562 52.3861L30.2509 61.2553H50.0927V52.3861H29.4562ZM50.0927 34.4346H27.8594L28.6654 43.3039H50.0927V34.4346ZM50.0927 84.6482V75.4205L50.0538 75.4309L40.179 72.7637L39.5477 65.69H30.647L31.8892 79.616L50.0519 84.6596L50.0927 84.6482Z" fill="#EBEBEB"/>
<path d="M31.3477 0H42.0867V4.49219H35.8385V8.98438H42.0867V13.4766H31.3477V0ZM44.2345 0H54.9735V3.90625H48.7254V4.6875H54.9735V13.6719H44.2345V9.57031H50.4827V8.78906H44.2345V0ZM57.1213 0H67.8604V3.90625H61.6122V4.6875H67.8604V13.6719H57.1213V9.57031H63.3695V8.78906H57.1213V0Z" fill="white"/>
<path d="M60.9808 61.2553L59.9516 72.758L50.0625 75.4279V84.6553L68.2396 79.616L68.3729 78.1176L70.4565 54.7678L70.6729 52.3861L72.2736 34.4346H50.0625V43.3039H62.5565L61.7497 52.3861H50.0625V61.2553H60.9808Z" fill="white"/>
</svg>
