<svg width="150" height="63" viewBox="0 0 150 63" fill="none" xmlns="http://www.w3.org/2000/svg">
<g clip-path="url(#clip0_66_10735)">
<path d="M89.8978 21.4435C86.6088 21.4435 84.1596 23.0676 84.1596 26.976C84.1596 29.9213 85.7741 31.9647 89.7208 31.9647C93.0664 31.9647 95.3381 29.9826 95.3381 26.8544C95.3381 23.3091 93.3049 21.4435 89.8978 21.4435ZM83.3199 49.0395C82.5418 49.9999 81.7658 51.0205 81.7658 52.2252C81.7658 54.6278 84.8135 55.3506 88.9993 55.3506C92.4668 55.3506 97.1901 55.1069 97.1901 51.8649C97.1901 49.938 94.9177 49.8187 92.0464 49.638L83.3199 49.0395ZM101.015 21.6253C102.09 23.0085 103.227 24.9326 103.227 27.6977C103.227 34.3701 98.0259 38.2774 90.4951 38.2774C88.58 38.2774 86.8462 38.0376 85.7713 37.7376L83.798 40.9232L89.656 41.2824C99.9993 41.9455 106.095 42.2466 106.095 50.2392C106.095 57.1542 100.059 61.0588 89.656 61.0588C78.8357 61.0588 74.7109 58.2937 74.7109 53.5453C74.7109 50.8388 75.9067 49.3993 77.9988 47.4127C76.026 46.5739 75.3687 45.072 75.3687 43.448C75.3687 42.1245 76.0254 40.9226 77.1031 39.7799C78.179 38.6388 79.3743 37.495 80.8091 36.1726C77.8801 34.7304 75.6677 31.6044 75.6677 27.155C75.6677 20.2428 80.2117 15.4955 89.3565 15.4955C91.9277 15.4955 93.4829 15.7331 94.8578 16.0967H106.516V21.2048L101.015 21.6259M117.039 10.7013C113.631 10.7013 111.659 8.71589 111.659 5.28822C111.659 1.86442 113.631 0 117.039 0C120.507 0 122.479 1.86442 122.479 5.28822C122.479 8.71589 120.507 10.7013 117.039 10.7013ZM109.326 46.827V42.0803L112.376 41.6603C113.213 41.5388 113.332 41.3597 113.332 40.4557V22.783C113.332 22.1227 113.153 21.6999 112.554 21.5215L109.326 20.3782L109.983 15.5105H122.359V40.4563C122.359 41.42 122.417 41.5393 123.316 41.6609L126.366 42.0809V46.8275H109.325M150.005 44.4973C147.434 45.7583 143.668 46.901 140.259 46.901C133.145 46.901 130.456 44.0177 130.456 37.222V21.4734C130.456 21.1136 130.456 20.8722 129.976 20.8722H125.792V15.5221C131.054 14.9197 133.145 12.274 133.803 5.72145H139.483V14.2605C139.483 14.6799 139.483 14.8617 139.962 14.8617H148.39V20.8722H139.483V35.2382C139.483 38.7853 140.321 40.1667 143.547 40.1667C145.223 40.1667 146.955 39.7467 148.39 39.2052L150.005 44.4973Z" fill="white"/>
<path d="M61.4261 28.7221L34.0897 1.23716C33.7154 0.860728 33.271 0.56212 32.7819 0.358392C32.2928 0.154663 31.7686 0.0498047 31.2392 0.0498047C30.7099 0.0498047 30.1857 0.154663 29.6966 0.358392C29.2075 0.56212 28.7631 0.860728 28.3888 1.23716L22.7127 6.94535L29.9127 14.1853C31.5865 13.6172 33.505 13.998 34.8387 15.3396C35.4742 15.9793 35.9179 16.786 36.1191 17.6673C36.3202 18.5486 36.2707 19.469 35.9762 20.3234L42.9157 27.3014C44.5945 26.7195 46.5316 27.0953 47.8724 28.4458C48.3181 28.8936 48.6716 29.4253 48.9128 30.0106C49.154 30.5958 49.2782 31.2231 49.2782 31.8566C49.2782 32.4901 49.154 33.1174 48.9128 33.7027C48.6716 34.2879 48.3181 34.8196 47.8724 35.2674C47.0886 36.0571 46.0568 36.5491 44.9527 36.6597C43.8486 36.7703 42.7405 36.4927 41.8171 35.8741C40.8937 35.2554 40.2122 34.3341 39.8884 33.2669C39.5647 32.1998 39.6188 31.0528 40.0416 30.0212L33.5704 23.5134V40.6386C34.0394 40.8715 34.4677 41.1795 34.8387 41.5503C36.7126 43.4346 36.7126 46.4871 34.8387 48.3742C32.9648 50.2579 29.927 50.2579 28.0547 48.3742C26.1808 46.4871 26.1808 43.4346 28.0547 41.5509C28.504 41.0989 29.038 40.7411 29.6258 40.4982V23.2145C29.0369 22.9733 28.5024 22.6153 28.0542 22.1618C27.3809 21.4851 26.9232 20.6222 26.7392 19.683C26.5552 18.7439 26.6533 17.7709 27.021 16.888L19.9227 9.74916L1.18099 28.595C0.424808 29.3555 0 30.3869 0 31.4624C0 32.5378 0.424808 33.5692 1.18099 34.3297L28.5158 61.8152C29.272 62.5754 30.2975 63.0024 31.3667 63.0024C32.436 63.0024 33.4615 62.5754 34.2177 61.8152L61.4261 34.4596C62.1822 33.6989 62.6069 32.6674 62.6069 31.5919C62.6069 30.5165 62.1822 29.485 61.4261 28.7243" fill="#F05133"/>
</g>
<defs>
<clipPath id="clip0_66_10735">
<rect width="150" height="63" fill="white"/>
</clipPath>
</defs>
</svg>
