<svg width="100" height="100" viewBox="0 0 100 100" fill="none" xmlns="http://www.w3.org/2000/svg">
<path d="M21.0256 91.9682L14.5781 19.6523H85.4246L78.9703 91.9568L49.958 100L21.0256 91.9682Z" fill="#E44D26"/>
<path d="M50 93.8523L73.4434 87.3529L78.959 25.5654H50V93.8523Z" fill="#F16529"/>
<path d="M49.9996 52.3861H38.2633L37.4527 43.3039H49.9996V34.4346H27.7598L27.9721 36.8141L30.152 61.2553H49.9996V52.3861ZM49.9996 75.4205L49.9607 75.4309L40.083 72.7637L39.4516 65.69H30.5482L31.7908 79.616L49.9588 84.6596L49.9996 84.6482V75.4205Z" fill="#EBEBEB"/>
<path d="M21.168 0H25.6752V4.45312H29.7982V0H34.3057V13.4852H29.7984V8.96953H25.6754V13.4852H21.1682L21.168 0ZM40.2328 4.47188H36.2648V0H48.7102V4.47188H44.7404V13.4852H40.233L40.2328 4.47188ZM50.6853 0H55.3852L58.2762 4.73828L61.1643 0H65.8658V13.4852H61.3771V6.80117L58.2762 11.5959H58.1986L55.0955 6.80117V13.4852H50.6853V0ZM68.109 0H72.6176V9.02773H78.9561V13.4852H68.109V0Z" fill="white"/>
<path d="M49.9688 52.3861V61.2553H60.8902L59.8607 72.758L49.9688 75.4279V84.6553L68.1512 79.616L68.2846 78.1176L70.3687 54.7678L70.5852 52.3861H68.1951H49.9688ZM49.9688 34.4346V43.3039H71.3922L71.5701 41.3104L71.9742 36.8141L72.1863 34.4346H49.9688Z" fill="white"/>
</svg>
